<mxfile host="app.diagrams.net" modified="2024-02-24T22:21:25.813Z" agent="Mozilla/5.0 (Macintosh; Intel Mac OS X 10_15_7) AppleWebKit/605.1.15 (KHTML, like Gecko) Version/17.3.1 Safari/605.1.15" etag="TTYFQBoD2PrdJwNLjziK" version="23.1.6" type="github">
  <diagram name="Page-1" id="h-o1xXPNGxm4JIrfsbzS">
    <mxGraphModel dx="1515" dy="1144" grid="0" gridSize="10" guides="1" tooltips="1" connect="1" arrows="1" fold="1" page="0" pageScale="1" pageWidth="850" pageHeight="1100" math="0" shadow="0">
      <root>
        <mxCell id="0" />
        <mxCell id="1" parent="0" />
        <mxCell id="j5u5HMJ2NCC8nRhq6zkA-2" value="" style="endArrow=none;dashed=1;html=1;rounded=0;fontSize=12;startSize=8;endSize=8;" edge="1" parent="1">
          <mxGeometry width="50" height="50" relative="1" as="geometry">
            <mxPoint x="-127" y="565" as="sourcePoint" />
            <mxPoint x="-132" y="-81" as="targetPoint" />
          </mxGeometry>
        </mxCell>
        <mxCell id="j5u5HMJ2NCC8nRhq6zkA-3" value="" style="endArrow=none;dashed=1;html=1;rounded=0;fontSize=12;startSize=8;endSize=8;" edge="1" parent="1">
          <mxGeometry width="50" height="50" relative="1" as="geometry">
            <mxPoint x="261" y="571" as="sourcePoint" />
            <mxPoint x="256" y="-75" as="targetPoint" />
          </mxGeometry>
        </mxCell>
      </root>
    </mxGraphModel>
  </diagram>
</mxfile>
